<?xml version="1.0" standalone="no"?>
<!DOCTYPE svg PUBLIC "-//W3C//DTD SVG 1.1//EN" "http://www.w3.org/Graphics/SVG/1.1/DTD/svg11.dtd" >
<!--
2013-9-30: Created.
-->
<svg>
<metadata>
Created by iconfont
</metadata>
<defs>

<font id="iconfont" horiz-adv-x="1024" >
  <font-face
    font-family="iconfont"
    font-weight="500"
    font-stretch="normal"
    units-per-em="1024"
    ascent="896"
    descent="-128"
  />
    <missing-glyph />
    
    <glyph glyph-name="OA" unicode="&#58907;" d="M863 129.1H161c-52.9 0-96 43.1-96 96V672c0 52.9 43.1 96 96 96h702c52.9 0 96-43.1 96-96v-446.9c0-53-43.1-96-96-96zM161 704c-17.6 0-32-14.4-32-32v-446.9c0-17.6 14.4-32 32-32h702c17.6 0 32 14.4 32 32V672c0 17.6-14.4 32-32 32H161zM767 0H257c-17.7 0-32 14.3-32 32s14.3 32 32 32h510c17.7 0 32-14.3 32-32s-14.3-32-32-32zM382.8 309c-74 0-134.2 65-134.2 145s60.2 145 134.2 145S517 534 517 454s-60.2-145-134.2-145z m0 226c-38.7 0-70.2-36.3-70.2-81s31.5-81 70.2-81 70.2 36.3 70.2 81-31.5 81-70.2 81zM782.4 299.9c-14.6 0-27.7 8.7-33.4 22.1l-14.8 35-27 64-28.6 67.8c-1.7 4.1-7.6 4.1-9.3 0L640.8 421l-27-64-14.8-35c-5.7-13.4-18.8-22.1-33.4-22.1-20.8 0-36.2 17.1-36.2 36.2 0 4.7 0.9 9.5 2.9 14.2l10.6 24.8 19.5 45.9 77.4 182.1c5.3 12.6 19 20.9 34.2 20.9s28.9-8.3 34.2-20.9L785.6 421l20.6-48.6 9.4-22.2c10.2-23.8-7.3-50.2-33.2-50.3zM753.9 361H586v15.8l17.1 40.2h127.1z"  horiz-adv-x="1024" />

    
    <glyph glyph-name="anquanshangbao" unicode="&#58908;" d="M511.6-61.8c-15.3 0-30.6 3.5-44.7 10.4-38.7 19.2-169.5 87.4-231.2 161.3-38.4 44.4-64.6 86.6-79.9 129-15.6 43.3-17.7 80.2-17.7 107.6v282c0 41.9 26.4 79.9 65.8 94.4L477.2 823.6c22.4 8.3 47.1 8.3 69.5 0L820 723c39.4-14.5 65.8-52.4 65.8-94.4v-282c0-27.4-2-64.3-17.7-107.6-15.4-42.5-41.6-84.8-80.1-129.3l-0.5-0.6c-52.3-57.5-156.5-122-229.9-159.8-14.3-7.4-30.1-11.1-46-11.1zM226.1 662.9c-14.3-5.3-23.9-19.1-23.9-34.3v-282c0-48.5 6.3-107.5 82.1-194.9l0.4-0.5C327.3 100 421.5 42.6 495.4 6c10.4-5.1 22.7-5 33 0.2C599.9 43 696.5 104.3 740 151.9c75.6 87.3 81.9 146.2 81.9 194.6v282c0 15.2-9.6 29-23.9 34.3L524.6 763.6c-8.2 3-17.1 3-25.3 0L226.1 662.9zM521.8 190.8c-17.7 0-32 14.3-32 32v320c0 17.7 14.3 32 32 32s32-14.3 32-32v-320c0-17.7-14.3-32-32-32zM681.8 350.8h-320c-17.7 0-32 14.3-32 32s14.3 32 32 32h320c17.7 0 32-14.3 32-32s-14.3-32-32-32z"  horiz-adv-x="1024" />

    
    <glyph glyph-name="diancan" unicode="&#58909;" d="M895.2 144H127.8c-17.8 0-35 7.5-47.1 20.6-12.1 13.1-18.2 30.8-16.7 48.6 4 48.6 15.8 95.9 35.1 140.6 18.7 43.4 44.1 83.4 75.5 119 31.2 35.4 67.6 65.5 108.1 89.6 41.3 24.5 86 42.1 132.9 52.3 31.4 6.8 63.6 10.3 96 10.3 32.3 0 64.6-3.5 96-10.3 46.9-10.2 91.6-27.8 132.9-52.3 40.5-24 76.9-54.2 108.1-89.6 31.4-35.6 56.8-75.6 75.5-119 19.3-44.7 31.1-92 35.1-140.6 1.5-17.8-4.6-35.5-16.7-48.6-12.3-13-29.5-20.6-47.3-20.6zM511.5 561c-27.8 0-55.5-3-82.4-8.8C265.5 516.6 141.5 375 127.8 208h767.5c-13.8 167-137.7 308.5-301.4 344.2-26.9 5.9-54.6 8.8-82.4 8.8zM928.2 16.3h-830c-17.7 0-32 14.3-32 32s14.3 32 32 32h830c17.7 0 32-14.3 32-32s-14.4-32-32-32zM390.4 543.8v94.8c0 66.8 54.4 121.2 121.2 121.2 32.3 0 62.7-12.6 85.6-35.6 22.9-22.9 35.6-53.3 35.6-85.6v-94.8l-38.8 8.4c-53.8 11.7-110.9 11.7-164.7 0l-38.9-8.4zM511.5 625c19.1 0 38.2-1.2 57.2-3.6v17.1c0 15.2-6 29.5-16.8 40.3-10.8 10.8-25.2 16.8-40.3 16.8-31.5 0-57.2-25.6-57.2-57.2v-17.1c18.9 2.5 38 3.7 57.1 3.7zM593.9 552.2c-53.8 11.7-110.9 11.7-164.7 0l-13.6 62.5c31.4 6.8 63.6 10.3 96 10.3 32.3 0 64.6-3.5 96-10.3l-13.7-62.5z"  horiz-adv-x="1024" />

    
    <glyph glyph-name="chengjidan" unicode="&#58910;" d="M742.7-62H188.9C133-62 87.6-16.5 87.6 39.4V728.6C87.6 784.5 133 830 188.9 830h553.8c55.9 0 101.4-45.5 101.4-101.4v-277.9h-64V728.6c0 20.6-16.8 37.4-37.4 37.4H188.9c-20.6 0-37.4-16.8-37.4-37.4v-689.3c0-20.6 16.8-37.4 37.4-37.4h553.8c20.6 0 37.4 16.8 37.4 37.4V296.5h64v-257.1c0-55.9-45.5-101.4-101.4-101.4zM552.3 352.1H247.6c-17.7 0-32 14.3-32 32s14.3 32 32 32h304.7c17.7 0 32-14.3 32-32s-14.3-32-32-32zM471.3 224.3H247.6c-17.7 0-32 14.3-32 32s14.3 32 32 32h223.7c17.7 0 32-14.3 32-32s-14.3-32-32-32zM403.3 96.1H247.6c-17.7 0-32 14.3-32 32s14.3 32 32 32h155.7c17.7 0 32-14.3 32-32s-14.3-32-32-32zM535.5 78.7c-8.5 0-16.7 3.4-22.7 9.5-7.3 7.3-10.6 17.8-8.8 28 0.1 0.8 14.6 84.9 18.3 106.7 1.1 6.6 4.2 12.6 8.9 17.3l257.1 257.1c11.2 11.2 27.1 16.2 43.7 13.8 13.4-1.9 26.5-8.6 36.7-18.9l48.2-48.2c10.2-10.2 16.9-23.3 18.9-36.7 2.4-16.6-2.6-32.6-13.8-43.7L664.9 106.4c-4.4-4.4-10.1-7.5-16.2-8.7-22.3-4.6-104.6-18-108-18.5-1.8-0.4-3.5-0.5-5.2-0.5zM583.7 202c-2.3-13.5-5.8-33.9-9-52.5 18.6 3.1 38.8 6.6 51.9 9l242.6 242.6-43.2 43.3L583.7 202zM275.9 661.1v-149.5h-24.5v114c-6.8-4.8-24.1-12.2-24.1-12.2v24.3c16.1 5.7 24.3 12.1 30.2 23.5h18.4zM285.4 502.1h-43.5V609.6c-5.3-2.6-10-4.6-10.9-5l-13.2-5.7v45.4l6.4 2.2c15.5 5.4 20.9 11 24.9 18.9l2.7 5.1h33.7v-168.4z m-24.5 19h5.5V651.6h-3.5c-5.9-9.1-13.9-15.4-26.2-20.5v-2.9c3.7 1.8 7.1 3.7 9.2 5.1l15 10.5v-122.7zM426.6 642.3c9.2-13.8 13.8-32.5 13.8-55.9s-4.6-42.1-13.8-55.9c-9.9-14.5-23.5-21.8-40.8-21.8-17.6 0-31.2 7.3-40.8 21.8-9.2 13.8-13.8 32.5-13.8 55.9s4.6 42.1 13.8 55.9c9.5 14.5 23.1 21.8 40.8 21.8 17.4-0.1 31-7.3 40.8-21.8z m-66-18.9c-3.4-8.9-5-21.3-5-37.1 0-15.5 1.7-27.9 5-37.1 4.9-13.3 13.3-19.9 25.1-19.9 11.7 0 20.1 6.6 25.1 19.9 3.4 9.2 5 21.6 5 37.1 0 15.8-1.7 28.1-5 37.1-5 13.3-13.4 19.9-25.1 19.9-12 0-20.4-6.6-25.1-19.9zM385.7 499.2c-20.9 0-37.3 8.8-48.8 26-10.2 15.3-15.4 35.9-15.4 61.2s5.2 45.8 15.4 61.2c11.3 17.2 27.7 26 48.7 26 20.7 0 37.1-8.7 48.7-26 10.2-15.3 15.4-35.9 15.4-61.2s-5.2-45.8-15.4-61.2l-0.1-0.1c-11.5-17.2-27.9-25.9-48.5-25.9z m0 155.3c-14.4 0-25.2-5.7-32.9-17.5-8.2-12.2-12.3-29.3-12.3-50.7s4.1-38.5 12.2-50.6c7.8-11.8 18.6-17.5 32.9-17.5 14.1 0 24.9 5.8 33 17.6 8.1 12.2 12.2 29.2 12.2 50.6 0 21.4-4.1 38.5-12.2 50.6-7.9 11.8-18.7 17.5-32.9 17.5z m0-134.6c-11.1 0-26.1 4.5-34 26.1-3.8 10.4-5.6 23.6-5.6 40.3 0 17 1.8 30.2 5.6 40.3 7.8 21.6 22.8 26.1 34 26.1 11 0 25.9-4.5 34-26 3.8-10.1 5.6-23.3 5.6-40.4 0-16.8-1.8-30-5.6-40.3v-0.1c-8.1-21.5-23-26-34-26z m0 113.9c-5.6 0-11.9-1.6-16.2-13.6v-0.1c-2.9-7.8-4.4-19.2-4.4-33.7 0-14.3 1.5-25.7 4.5-33.8 4.5-12.1 11-13.6 16.2-13.6 5.1 0 11.6 1.6 16.2 13.7 2.9 8.1 4.4 19.5 4.4 33.8 0 14.6-1.5 25.9-4.4 33.7-4.7 12-11.1 13.6-16.3 13.6zM566.7 642.3c9.2-13.8 13.8-32.5 13.8-55.9s-4.6-42.1-13.8-55.9c-9.9-14.5-23.5-21.8-40.8-21.8-17.6 0-31.2 7.3-40.8 21.8-9.2 13.8-13.8 32.5-13.8 55.9s4.6 42.1 13.8 55.9c9.5 14.5 23.1 21.8 40.8 21.8 17.4-0.1 31-7.3 40.8-21.8z m-65.9-18.9c-3.4-8.9-5-21.3-5-37.1 0-15.5 1.7-27.9 5-37.1 4.9-13.3 13.3-19.9 25.1-19.9 11.7 0 20.1 6.6 25.1 19.9 3.4 9.2 5 21.6 5 37.1 0 15.8-1.7 28.1-5 37.1-5 13.3-13.4 19.9-25.1 19.9-12 0-20.4-6.6-25.1-19.9zM525.9 499.2c-20.9 0-37.3 8.8-48.8 26-10.2 15.3-15.4 35.9-15.4 61.2s5.2 45.8 15.4 61.2c11.3 17.2 27.7 26 48.7 26 20.7 0 37.1-8.7 48.7-26 10.2-15.3 15.4-35.9 15.4-61.2s-5.2-45.8-15.4-61.2l-0.1-0.1c-11.6-17.2-28-25.9-48.5-25.9z m0 155.3c-14.4 0-25.2-5.7-32.9-17.5-8.2-12.2-12.3-29.3-12.3-50.7s4.1-38.5 12.2-50.6c7.8-11.8 18.6-17.5 32.9-17.5 14.1 0 24.9 5.8 33 17.6C566.9 548 571 565 571 586.4c0 21.4-4.1 38.5-12.2 50.6-7.9 11.8-18.7 17.5-32.9 17.5z m0-134.6c-11.1 0-26.1 4.5-34 26.1-3.8 10.4-5.6 23.6-5.6 40.3 0 17 1.8 30.2 5.6 40.3 7.8 21.6 22.8 26.1 34.1 26.1 11 0 25.9-4.5 34-26 3.8-10.1 5.6-23.3 5.6-40.4 0-16.8-1.8-30-5.6-40.3v-0.1c-8.2-21.5-23.1-26-34.1-26z m0 113.9c-5.6 0-11.9-1.6-16.2-13.6v-0.1c-2.9-7.8-4.4-19.2-4.4-33.7 0-14.3 1.5-25.7 4.5-33.8 4.5-12.1 11-13.6 16.2-13.6 5.1 0 11.6 1.6 16.2 13.7 2.9 8.1 4.4 19.5 4.4 33.8 0 14.6-1.5 25.9-4.4 33.7-4.7 12-11.2 13.6-16.3 13.6z"  horiz-adv-x="1024" />

    
    <glyph glyph-name="gengduo" unicode="&#58911;" d="M385.5 414.1H193.4c-52.9 0-96 43.1-96 96V702.2c0 52.9 43.1 96 96 96h192.1c52.9 0 96-43.1 96-96v-192.1c0-52.9-43.1-96-96-96zM193.4 734.2c-17.6 0-32-14.4-32-32v-192.1c0-17.6 14.4-32 32-32h192.1c17.6 0 32 14.4 32 32V702.2c0 17.6-14.4 32-32 32H193.4zM385.5-30.2H193.4c-52.9 0-96 43.1-96 96V257.9c0 52.9 43.1 96 96 96h192.1c52.9 0 96-43.1 96-96v-192.1c0-52.9-43.1-96-96-96zM193.4 289.9c-17.6 0-32-14.4-32-32v-192.1c0-17.6 14.4-32 32-32h192.1c17.6 0 32 14.4 32 32V257.9c0 17.6-14.4 32-32 32H193.4zM734.5 414.1c-105.9 0-192 86.1-192 192s86.1 192 192 192 192-86.1 192-192-86.1-192-192-192z m0 320.1c-70.6 0-128-57.4-128-128s57.4-128 128-128 128 57.4 128 128-57.4 128-128 128zM830.6-30.2H638.5c-52.9 0-96 43.1-96 96V257.9c0 52.9 43.1 96 96 96h192.1c52.9 0 96-43.1 96-96v-192.1c0-52.9-43.1-96-96-96zM638.5 289.9c-17.6 0-32-14.4-32-32v-192.1c0-17.6 14.4-32 32-32h192.1c17.6 0 32 14.4 32 32V257.9c0 17.6-14.4 32-32 32H638.5z"  horiz-adv-x="1024" />

    
    <glyph glyph-name="jilika" unicode="&#58912;" d="M512 770.8c43.8 0 86.2-8.6 126.1-25.4 38.6-16.3 73.2-39.7 103-69.5s53.1-64.4 69.5-103C827.4 533 836 490.5 836 446.8s-8.6-86.2-25.4-126.1c-16.3-38.6-39.7-73.2-69.5-103s-64.4-53.1-103-69.5c-39.9-16.9-82.3-25.4-126.1-25.4s-86.2 8.6-126.1 25.4c-38.6 16.3-73.2 39.7-103 69.5s-53.1 64.4-69.5 103C196.6 360.6 188 403 188 446.8s8.6 86.2 25.4 126.1c16.3 38.6 39.7 73.2 69.5 103s64.4 53.1 103 69.5c39.9 16.8 82.3 25.4 126.1 25.4m0 64c-214.3 0-388-173.7-388-388s173.7-388 388-388 388 173.7 388 388-173.7 388-388 388zM512 540.2c51.5 0 93.4-41.9 93.4-93.4s-41.9-93.4-93.4-93.4-93.4 41.9-93.4 93.4 41.9 93.4 93.4 93.4m0 64c-86.9 0-157.4-70.5-157.4-157.4S425.1 289.4 512 289.4s157.4 70.5 157.4 157.4S598.9 604.2 512 604.2zM383.2-98.8c-9.7 0-19 4.4-25.2 12.2l-55.6 70.7-86.4-25c-11.4-3.3-23.6 0-31.9 8.5-8.2 8.5-11.1 20.8-7.5 32.1l52.3 162.4c5.4 16.8 23.4 26.1 40.3 20.7 16.8-5.4 26.1-23.4 20.7-40.3L256 37.3l49.3 14.3c12.5 3.6 26-0.7 34-11l31.7-40.4 25 77.7c5.4 16.8 23.4 26.1 40.3 20.7 16.8-5.4 26.1-23.4 20.7-40.3l-43.4-135c-3.6-11.3-13.2-19.6-24.8-21.7-1.9-0.2-3.8-0.4-5.6-0.4zM640.7-98.8c-1.9 0-3.8 0.2-5.7 0.5-11.6 2.1-21.2 10.4-24.8 21.7l-43.4 135c-5.4 16.8 3.8 34.9 20.7 40.3s34.9-3.8 40.3-20.7l25-77.7 31.7 40.4c8.1 10.2 21.5 14.6 34 11l49.3-14.3-33.8 105c-5.4 16.8 3.8 34.9 20.7 40.3 16.8 5.4 34.9-3.8 40.3-20.7l52.2-162.3c3.6-11.3 0.7-23.6-7.5-32.1s-20.5-11.7-31.9-8.5l-86.4 25-55.6-70.7c-6.1-7.7-15.4-12.2-25.1-12.2z"  horiz-adv-x="1024" />

    
    <glyph glyph-name="jichuxinxi" unicode="&#58913;" d="M512 480.6c53.3 0 96.6-43.3 96.6-96.6s-43.3-96.6-96.6-96.6-96.6 43.3-96.6 96.6 43.3 96.6 96.6 96.6m0 64c-88.7 0-160.6-71.9-160.6-160.6S423.3 223.4 512 223.4 672.6 295.3 672.6 384 600.7 544.6 512 544.6zM531.8-64.3h-39.6c-55.5 0-104.6 35.4-122 88.1l-5.6 16.9c-5 15.1-15.5 27.8-29.5 35.9l-0.6 0.3c-14.2 8.2-30.5 10.9-46 7.7L271 81c-8.7-1.8-17.5-2.7-26.1-2.7-45.3 0-87.9 23.9-111.2 64.3L113.8 177C86 225.1 92.2 285.2 129.1 326.7l11.4 12.8c10.6 11.9 16.4 27.3 16.3 43.5v1.9c0 16.2-5.8 31.7-16.3 43.5L129 441.3C92.2 482.8 86 542.9 113.8 591l19.8 34.3c27.8 48.1 83 72.9 137.3 61.6l16-3.3c15.6-3.2 31.9-0.5 45.9 7.7 0.9 0.5 1.8 1.1 2.7 1.6 13.9 8 24.3 20.7 29.4 35.8l5.2 15.6c17.5 52.7 66.5 88.1 122 88.1h39.6c55.5 0 104.6-35.4 122-88.1l5.2-15.6c5-15.1 15.4-27.8 29.4-35.8 0.9-0.5 1.8-1.1 2.7-1.6 14-8.2 30.3-10.9 45.9-7.7l16 3.3c54.4 11.2 109.6-13.5 137.3-61.6L910 591c27.8-48.1 21.6-108.3-15.3-149.7l-11.5-12.9c-10.5-11.8-16.3-27.2-16.3-43.4v-1.9c-0.1-16.1 5.7-31.6 16.3-43.5l11.4-12.8c36.9-41.5 43.1-101.7 15.3-149.7l-19.8-34.3c-27.8-48.1-83-72.8-137.3-61.6l-17.5 3.6c-15.5 3.2-31.8 0.5-45.9-7.7l-0.7-0.4c-14-8.1-24.5-20.8-29.5-35.9l-5.6-16.9c-17.2-52.8-66.3-88.2-121.8-88.2zM301.3 150c22.6 0 45-6 65.1-17.6l0.5-0.3c27.7-16 48.4-41.3 58.4-71.3l5.6-16.9c8.8-26.5 33.4-44.3 61.3-44.3h39.6c27.9 0 52.5 17.8 61.3 44.3l5.6 16.9c9.9 30 30.7 55.3 58.3 71.2l0.6 0.3c27.7 16 60 21.3 90.9 14.9l17.5-3.6c27.3-5.6 55 6.8 69 30.9l19.8 34.3c13.9 24.1 10.9 54.4-7.7 75.2l-11.4 13c-21.1 23.7-32.7 54.4-32.5 86.3v1.6c0 31.9 11.5 62.5 32.5 86l11.5 12.9c18.5 20.8 21.6 51 7.7 75.2L835 593.3c-13.9 24.1-41.7 36.6-69 30.9l-16-3.3c-31.1-6.4-63.5-1.1-91.2 15.1-0.7 0.4-1.5 0.9-2.2 1.3-27.6 15.8-48.3 41.1-58.3 71.2l-5.2 15.6c-8.8 26.5-33.4 44.3-61.3 44.3h-39.6c-27.9 0-52.5-17.8-61.3-44.3l-5.2-15.6c-10-30.1-30.7-55.4-58.3-71.2-0.7-0.4-1.5-0.9-2.2-1.3-27.7-16.2-60-21.5-91.2-15.1l-16 3.3c-27.3 5.6-55-6.8-69-30.9L169.2 559c-13.9-24.1-10.9-54.4 7.7-75.2l11.5-12.9c21-23.6 32.5-54.1 32.5-86.1v-1.6c0.1-31.9-11.4-62.6-32.5-86.3L177 284.1c-18.5-20.8-21.6-51-7.7-75.2l19.8-34.3c13.9-24.1 41.7-36.6 69-30.9l17.5 3.6c8.4 1.8 17.1 2.7 25.7 2.7z"  horiz-adv-x="1024" />

    
    <glyph glyph-name="kaoshi" unicode="&#58914;" d="M428.9 545.5H118.7c-18.8 0-34.1 14.3-34.1 32s15.3 32 34.1 32H429c18.8 0 34.1-14.3 34.1-32s-15.3-32-34.2-32zM594.6 353.5H118.7c-18.8 0-34.1 14.3-34.1 32s15.3 32 34.1 32h475.9c18.8 0 34.1-14.3 34.1-32s-15.3-32-34.1-32zM594.6 723H118.7c-18.8 0-34.1 14.3-34.1 32s15.3 32 34.1 32h475.9c18.8 0 34.1-14.3 34.1-32s-15.3-32-34.1-32zM837.9 273.7H761c-40.5 0-73.5 33-73.5 73.5v76.9c0 40.5 33 73.5 73.5 73.5h76.9c40.5 0 73.5-33 73.5-73.5v-76.9c0-40.5-33-73.5-73.5-73.5zM761 441.6c-9.7 0-17.5-7.9-17.5-17.5v-76.9c0-9.7 7.9-17.5 17.5-17.5h76.9c9.7 0 17.5 7.9 17.5 17.5v76.9c0 9.7-7.9 17.5-17.5 17.5H761zM428.9 161.5H118.7c-18.8 0-34.1 14.3-34.1 32s15.3 32 34.1 32H429c18.8 0 34.1-14.3 34.1-32s-15.3-32-34.2-32zM594.6-19.5H118.7c-18.8 0-34.1 14.3-34.1 32s15.3 32 34.1 32h475.9c18.8 0 34.1-14.3 34.1-32s-15.3-32-34.1-32zM837.1-30.5h-76.9c-40.5 0-73.5 33-73.5 73.5v76.9c0 40.5 33 73.5 73.5 73.5h76.9c40.5 0 73.5-33 73.5-73.5V43c0-40.6-33-73.5-73.5-73.5z m-76.9 167.9c-9.7 0-17.5-7.9-17.5-17.5V43c0-9.7 7.9-17.5 17.5-17.5h76.9c9.7 0 17.5 7.9 17.5 17.5v76.9c0 9.7-7.9 17.5-17.5 17.5h-76.9zM799.8 600.5c-8.2 0-16.2 3.2-22.2 8.9L695.9 688c-12.7 12.3-13.1 32.5-0.9 45.2 12.2 12.7 32.5 13.1 45.2 0.9l56.9-54.8L886.8 787c11.3 13.6 31.5 15.4 45.1 4.1 13.6-11.3 15.4-31.5 4.1-45.1L824.4 612c-5.7-6.8-14-11-22.8-11.5h-1.8z"  horiz-adv-x="1024" />

    
    <glyph glyph-name="paikao" unicode="&#58915;" d="M864 105.1H160c-52.9 0-96 43.1-96 96V620.8c0 52.9 43.1 96 96 96h704c52.9 0 96-43.1 96-96v-419.7c0-53-43.1-96-96-96zM160 652.8c-17.6 0-32-14.4-32-32v-419.7c0-17.6 14.4-32 32-32h704c17.6 0 32 14.4 32 32V620.8c0 17.6-14.4 32-32 32H160zM278.2-8.9c-8.5 0-17 3.4-23.3 10.1-12.1 12.9-11.5 33.1 1.4 45.2l113.1 106.5c12.9 12.1 33.1 11.5 45.2-1.4 12.1-12.9 11.5-33.1-1.4-45.2l-113-106.5c-6.2-5.8-14.1-8.7-22-8.7zM743.6-8.9c-7.9 0-15.8 2.9-21.9 8.7L608.6 106.3c-12.9 12.1-13.5 32.4-1.4 45.2 12.1 12.9 32.4 13.5 45.2 1.4l113.1-106.5c12.9-12.1 13.5-32.4 1.4-45.2-6.3-6.7-14.8-10.1-23.3-10.1zM512 652.9c-17.7 0-32 14.3-32 32v60c0 17.7 14.3 32 32 32s32-14.3 32-32v-60c0-17.7-14.3-32-32-32zM792.4 512.2l-560.6 0.8c-17.7 0-32 14.4-32 32 0 17.7 14.3 32 32 32l560.6-0.8c17.7 0 32-14.4 32-32 0-17.7-14.3-32-32-32zM340 378.8l-106.4 0.2c-17.7 0-32 14.4-32 32 0 17.7 14.3 32 32 32l106.3-0.2c17.7 0 32-14.4 32-32 0.1-17.7-14.2-32-31.9-32zM757.6 378.3l-304.6 0.5c-17.7 0-32 14.4-32 32 0 17.7 14.3 32 32 32l304.6-0.4c17.7 0 32-14.4 32-32 0-17.8-14.3-32.1-32-32.1zM401.6 244.8c-0.1 0-0.1 0 0 0l-168.1 0.2c-17.7 0-32 14.4-32 32 0 17.7 14.3 32 32 32l168-0.2c17.7 0 32-14.4 32-32 0-17.7-14.3-32-31.9-32zM585.1 244.9c-0.1 0-0.1 0 0 0l-72.2 0.1c-17.7 0-32 14.4-32 32 0 17.7 14.3 32 32 32l72.1-0.1c17.7 0 32-14.4 32-32 0-17.7-14.3-32-31.9-32z"  horiz-adv-x="1024" />

    
    <glyph glyph-name="tiaodaike" unicode="&#58916;" d="M863-28H161c-52.9 0-96 43.1-96 96V646.7c0 52.9 43.1 96 96 96h702c52.9 0 96-43.1 96-96V68c0-52.9-43.1-96-96-96zM161 678.7c-17.6 0-32-14.4-32-32V68c0-17.6 14.4-32 32-32h702c17.6 0 32 14.4 32 32V646.7c0 17.6-14.4 32-32 32H161zM110.8 559.7H935v-64H110.8zM319.1 588c-17.7 0-32 14.3-32 32V772c0 17.7 14.3 32 32 32s32-14.3 32-32v-152c0-17.6-14.4-32-32-32zM702.1 588c-17.7 0-32 14.3-32 32V772c0 17.7 14.3 32 32 32s32-14.3 32-32v-152c0-17.6-14.3-32-32-32zM734.5 309.4H287.4c-17.7 0-32 14.3-32 32s14.3 32 32 32h349.5L588.5 409c-14.2 10.5-17.3 30.5-6.8 44.7 10.5 14.2 30.5 17.3 44.7 6.8l127-93.3c11.1-8.2 15.8-22.6 11.5-35.8s-16.6-22-30.4-22zM414.4 92.4c-6.6 0-13.2 2-18.9 6.2l-127 93.3c-11.1 8.2-15.8 22.6-11.5 35.8 4.3 13.1 16.6 22 30.4 22h447.1c17.7 0 32-14.3 32-32s-14.3-32-32-32H384.9l48.4-35.6c14.2-10.5 17.3-30.5 6.8-44.7-6.2-8.4-15.9-13-25.7-13z"  horiz-adv-x="1024" />

    
    <glyph glyph-name="xuanke" unicode="&#58917;" d="M593.6 37.8c-8.5 0-16.7 3.4-22.7 9.5-7.3 7.3-10.6 17.8-8.8 28 0.1 0.8 14.6 84.8 18.3 106.6 1.1 6.6 4.2 12.6 8.9 17.3l257 257c11.2 11.2 27.1 16.2 43.7 13.8 13.4-1.9 26.5-8.6 36.7-18.9l48.2-48.2c10.2-10.2 16.9-23.3 18.9-36.7 2.4-16.6-2.6-32.6-13.8-43.7l-257-257c-4.4-4.4-10.1-7.5-16.2-8.7-22.3-4.6-104.5-18-108-18.5-1.8-0.3-3.5-0.5-5.2-0.5z m48.1 123.3c-2.3-13.5-5.8-33.8-9-52.4 18.5 3.1 38.8 6.6 51.9 9l242.5 242.5-43.2 43.2-242.2-242.3zM835.2-45.8H133.7c-52.9 0-96 43-96 96V628.5c0 52.9 43 96 96 96h701.6c52.9 0 96-43 96-96v-196h-64v196c0 17.6-14.3 32-32 32H133.7c-17.6 0-32-14.3-32-32v-578.4c0-17.6 14.3-32 32-32h701.6c17.6 0 32 14.3 32 32V287h64v-236.9c-0.1-52.8-43.1-95.9-96.1-95.9zM83.5 541.6h823.7v-64H83.5zM303.9 597.9c-17.7 0-32 14.3-32 32V781.8c0 17.7 14.3 32 32 32s32-14.3 32-32v-151.9c0-17.7-14.3-32-32-32zM686.8 597.9c-17.7 0-32 14.3-32 32V781.8c0 17.7 14.3 32 32 32s32-14.3 32-32v-151.9c0-17.7-14.4-32-32-32z"  horiz-adv-x="1024" />

    
    <glyph glyph-name="shouye" unicode="&#58918;" d="M448-31.9H300.9c-51 0-92.4 43.1-92.4 96v347c0 17.7 14.3 32 32 32s32-14.3 32-32v-347c0-17.6 12.7-32 28.4-32H448c17.7 0 32-14.3 32-32s-14.3-32-32-32zM723.1-31.9H576c-17.7 0-32 14.3-32 32s14.3 32 32 32h147.1c15.7 0 28.4 14.4 28.4 32v347c0 17.7 14.3 32 32 32s32-14.3 32-32v-347c0-52.9-41.5-96-92.4-96zM882.6 386.1H143.7c-19.8 0-37.2 12.1-44.4 30.9-7.5 19.4-2.5 40.9 12.8 54.7l335.7 303.9c17.3 15.6 39.4 24.2 62.2 24.2 22.8 0 44.9-8.6 62.2-24.2l340.6-308.4c14.5-13.1 19.2-33.4 12.1-51.8-6.9-17.7-23.5-29.3-42.3-29.3z m-12.8 33.8z m-686.2 30.2h652.8L529.2 728.2c-11.3 10.2-27.1 10.2-38.5 0L183.6 450.1zM576-31.9c-17.7 0-32 14.3-32 32V192.6h-64v-192.5c0-17.7-14.3-32-32-32s-32 14.3-32 32V194.6c0 34.2 27.8 62 62 62h68c34.2 0 62-27.8 62-62v-194.5c0-17.7-14.3-32-32-32z"  horiz-adv-x="1024" />

    
    <glyph glyph-name="tongji" unicode="&#58919;" d="M256-32.2h-62.5c-52.9 0-96 43.1-96 96V413.9c0 52.9 43.1 96 96 96H256c52.9 0 96-43.1 96-96v-350.1c0-53-43.1-96-96-96z m-62.5 478.1c-17.6 0-32-14.4-32-32v-350.1c0-17.6 14.4-32 32-32H256c17.6 0 32 14.4 32 32V413.9c0 17.6-14.4 32-32 32h-62.5zM542.2-32.2h-62.5c-52.9 0-96 43.1-96 96V704.2c0 52.9 43.1 96 96 96h62.5c52.9 0 96-43.1 96-96v-640.5c0-52.9-43-95.9-96-95.9z m-62.4 768.4c-17.6 0-32-14.4-32-32v-640.5c0-17.6 14.4-32 32-32h62.5c17.6 0 32 14.4 32 32V704.2c0 17.6-14.4 32-32 32h-62.5zM830.5-32.2H768c-52.9 0-96 43.1-96 96v479c0 52.9 43.1 96 96 96h62.5c52.9 0 96-43.1 96-96v-479c0-53-43.1-96-96-96zM768 574.7c-17.6 0-32-14.4-32-32v-479c0-17.6 14.4-32 32-32h62.5c17.6 0 32 14.4 32 32v479c0 17.6-14.4 32-32 32H768z"  horiz-adv-x="1024" />

    
    <glyph glyph-name="shenpi" unicode="&#58920;" d="M430.7 255.1h162.6v-64H430.7zM622.1 215.2l-65.3 258.3c-3.6 14.1 2.9 28.9 15.7 35.9C612.9 531.6 638 573.9 638 620c0 69.5-56.5 126-126 126s-126-56.5-126-126c0-44.7 24.1-86.5 62.8-109 12.3-7.2 18.4-21.7 14.9-35.5l-65.8-260.3-62 15.7 60.3 238.5c-19.3 14.9-35.7 33.4-48 54.4C331 552.9 322 586.1 322 620c0 104.8 85.2 190 190 190s190-85.2 190-190c0-61-29.2-117.6-77.5-153.1L684.1 231l-62-15.8zM794.5-42h-565c-52.9 0-96 43.1-96 96V159c0 52.9 43.1 96 96 96h565c52.9 0 96-43.1 96-96v-105c0-52.9-43.1-96-96-96z m-565 233c-17.6 0-32-14.4-32-32v-105c0-17.6 14.4-32 32-32h565c17.6 0 32 14.4 32 32V159c0 17.6-14.4 32-32 32h-565z"  horiz-adv-x="1024" />

    
    <glyph glyph-name="yuedu" unicode="&#58921;" d="M863-46H500.3L309.7 73.4c-33.8 21.2-54.9 60.7-54.9 103V733.5c0 30.4 14.5 57.6 38.7 72.9 24.4 15.4 53.6 15.4 78 0.1L507 721.7h356c52.9 0 96-46.9 96-104.6v-558.4c0-57.8-43.1-104.7-96-104.7z m-345.6 69.8H863c17.6 0 32 15.6 32 34.9V617.1c0 19.2-14.4 34.9-32 34.9H489.9l-150.3 94.1c-6.4 4-12 1.3-14.1 0-2.5-1.6-6.7-5.3-6.7-12.6v-557.1c0-17.5 8.7-33.8 22.8-42.5l175.8-110.1zM508.8-46H161c-52.9 0-96 46.9-96 104.6V617.1c0 57.7 43.1 104.6 96 104.6h125.8v-69.8H161c-17.6 0-32-15.6-32-34.9v-558.4c0-19.2 14.4-34.9 32-34.9h347.8V-46zM497.5 721.7h1v-69.8h-1zM480 686.8h64v-697.2h-64z"  horiz-adv-x="1024" />

    
    <glyph glyph-name="xuefen" unicode="&#58922;" d="M788.9-62H235.1c-55.9 0-101.4 45.5-101.4 101.4V728.6c0 55.9 45.5 101.4 101.4 101.4h400.4c27.1 0 52.6-10.6 71.8-29.7L860.5 647c19.2-19.2 29.7-44.7 29.7-71.8v-535.8c0.1-55.9-45.4-101.4-101.3-101.4zM235.1 766c-20.6 0-37.4-16.8-37.4-37.4v-689.3c0-20.6 16.8-37.4 37.4-37.4h553.8c20.6 0 37.4 16.8 37.4 37.4V575.2c0 10-3.9 19.5-11 26.5L662 755c-7.1 7.1-16.5 11-26.5 11H235.1zM720.5 512h-162c-17.7 0-32 14.3-32 32s14.3 32 32 32h162c17.7 0 32-14.3 32-32s-14.3-32-32-32zM639.5 431c-17.7 0-32 14.3-32 32V625c0 17.7 14.3 32 32 32s32-14.3 32-32v-162c0-17.7-14.3-32-32-32zM589.9 182.9c-14.6 0-27.7 8.7-33.4 22.1l-14.8 35-27 64-28.6 67.8c-1.7 4.1-7.6 4.1-9.3 0L448.2 304l-27-64-14.8-35c-5.7-13.4-18.8-22.1-33.4-22.1-20.8 0-36.2 17.1-36.2 36.2 0 4.7 0.9 9.5 2.9 14.2l10.6 24.8 19.5 45.9 77.4 182.1c5.3 12.6 19 20.9 34.2 20.9s28.9-8.3 34.2-20.9L593.1 304l20.6-48.6 9.4-22.2c10.2-23.8-7.3-50.2-33.2-50.3zM561.3 244H393.5v15.8l17.1 40.2h127.1z"  horiz-adv-x="1024" />

    
    <glyph glyph-name="zhinengsuo" unicode="&#58923;" d="M407.7 73.9c-74.7 0-135.5 60.8-135.5 135.5S333 344.9 407.7 344.9c32.2 0 63.5-11.6 87.8-32.3h395c17.7 0 32-14.3 32-32v-140.1c0-17.7-14.3-32-32-32H498c-24.7-22.1-56.9-34.6-90.3-34.6z m0 207c-39.4 0-71.5-32.1-71.5-71.5s32.1-71.5 71.5-71.5c20.3 0 39.7 8.7 53.3 23.8 6.1 6.8 14.7 10.7 23.8 10.7h373.7v76.1H482.8c-8.8 0-17.2 3.6-23.2 10-13.6 14.4-32.1 22.4-51.9 22.4zM580.1 591.2H304.3c-17.7 0-32 14.3-32 32s14.3 32 32 32h275.9c17.7 0 32-14.3 32-32s-14.4-32-32.1-32zM580.1 453.3H304.3c-17.7 0-32 14.3-32 32s14.3 32 32 32h275.9c17.7 0 32-14.3 32-32s-14.4-32-32.1-32zM756.6-62H202.8c-55.9 0-101.4 45.5-101.4 101.4V728.6c0 55.9 45.5 101.4 101.4 101.4h553.8C812.5 830 858 784.5 858 728.6v-448.1h-64V728.6c0 20.6-16.8 37.4-37.4 37.4H202.8c-20.6 0-37.4-16.8-37.4-37.4v-689.3c0-20.6 16.8-37.4 37.4-37.4h553.8c20.6 0 37.4 16.8 37.4 37.4V140.4h64v-101.1c0-55.8-45.5-101.3-101.4-101.3z"  horiz-adv-x="1024" />

    
    <glyph glyph-name="xinshengfenban" unicode="&#58924;" d="M386.9 285.6c-64.7 0-125.5 25.2-171.2 70.9-45.7 45.7-70.9 106.5-70.9 171.2 0 64.7 25.2 125.5 70.9 171.2 45.7 45.7 106.5 70.9 171.2 70.9s125.5-25.2 171.2-70.9c45.7-45.7 70.9-106.5 70.9-171.2 0-64.7-25.2-125.5-70.9-171.2-45.7-45.8-106.5-70.9-171.2-70.9z m0 420.2c-98.2 0-178.1-79.9-178.1-178.1 0-98.2 79.9-178.1 178.1-178.1S565 429.5 565 527.7c0 98.2-79.9 178.1-178.1 178.1zM673.7-1.8c-17.7 0-32 14.3-32 32 0 140.5-114.3 254.8-254.8 254.8S132.1 170.7 132.1 30.2c0-17.7-14.3-32-32-32s-32 14.3-32 32c0 85.2 33.2 165.2 93.4 225.4 60.2 60.2 140.3 93.4 225.4 93.4 85.2 0 165.2-33.2 225.4-93.4 60.2-60.2 93.4-140.3 93.4-225.4 0-17.7-14.3-32-32-32zM692.9 333.5c-17.7 0-32 14.3-32 32s14.3 32 32 32c75.7 0 137.2 61.6 137.2 137.2S768.6 672 692.9 672c-6.5 0-13-0.5-19.4-1.4-17.5-2.5-33.7 9.7-36.2 27.2s9.7 33.7 27.2 36.2c9.3 1.3 18.9 2 28.4 2 111 0 201.2-90.3 201.2-201.2s-90.2-201.3-201.2-201.3zM923.9 102.1c-17.7 0-32 14.3-32 32 0 109.7-89.3 199-199 199-17.7 0-32 14.3-32 32s14.3 32 32 32c70.2 0 136.3-27.4 186-77s77-115.7 77-186c0-17.7-14.3-32-32-32z"  horiz-adv-x="1024" />

    
    <glyph glyph-name="zonghesuzhi1" unicode="&#58925;" d="M729.4-41.6H294.6c-41.7 0-78.4 26.7-91.3 66.3L68.9 438.3C56 478 70.1 521.1 103.8 545.6L455.6 801.2c33.8 24.5 79.1 24.5 112.9 0l351.8-255.6c33.8-24.5 47.8-67.7 34.9-107.3L820.7 24.8c-12.9-39.7-49.6-66.4-91.3-66.4z m-236.2 791L141.4 493.8c-11.3-8.2-15.9-22.6-11.6-35.8l134.4-413.5c4.3-13.2 16.5-22.1 30.4-22.1h434.8c13.9 0 26.1 8.9 30.4 22.1L894.2 458c4.3 13.2-0.4 27.6-11.6 35.8L530.8 749.4a31.81 31.81 0 0 1-37.6 0zM658.8 176.4H406.7c-13.9 0-26.1 8.9-30.4 22.1l-77.9 239.8c-4.3 13.2 0.4 27.6 11.6 35.8l204 148.2c7.3 5.3 16.5 7.3 25.3 5.4 8.8-1.8 16.5-7.3 21.1-15.1l106.2-181c2.4-4 3.8-8.5 4.3-13.1l19.8-207.1c0.9-9-2.1-17.9-8.2-24.6-6-6.6-14.6-10.4-23.7-10.4z m-228.9 64h193.7l-15.8 165L523 549.8 366.4 436l63.5-195.6z"  horiz-adv-x="1024" />

    
    <glyph glyph-name="paike" unicode="&#58926;" d="M861.5-31h-699c-52.9 0-96 43.1-96 96V641.9c0 52.9 43.1 96 96 96h699c52.9 0 96-43.1 96-96V65c0-52.9-43.1-96-96-96z m-699 704.9c-17.6 0-32-14.4-32-32V65c0-17.6 14.4-32 32-32h699c17.6 0 32 14.4 32 32V641.9c0 17.6-14.4 32-32 32h-699zM112.2 555.4h821.3v-64H112.2zM319.8 583.4c-17.7 0-32 14.3-32 32V767c0 17.7 14.3 32 32 32s32-14.3 32-32v-151.6c0-17.6-14.4-32-32-32zM701.5 583.4c-17.7 0-32 14.3-32 32V767c0 17.7 14.3 32 32 32s32-14.3 32-32v-151.6c0-17.6-14.4-32-32-32zM341.1 367.1H225.5c-17.7 0-32 14.3-32 32s14.3 32 32 32h115.7c17.7 0 32-14.3 32-32-0.1-17.7-14.4-32-32.1-32zM573.4 367.1H457.8c-17.7 0-32 14.3-32 32s14.3 32 32 32h115.7c17.7 0 32-14.3 32-32-0.1-17.7-14.4-32-32.1-32zM797.5 367.1H681.9c-17.7 0-32 14.3-32 32s14.3 32 32 32h115.7c17.7 0 32-14.3 32-32-0.1-17.7-14.4-32-32.1-32zM341.1 244.3H225.5c-17.7 0-32 14.3-32 32s14.3 32 32 32h115.7c17.7 0 32-14.3 32-32s-14.4-32-32.1-32zM573.4 244.3H457.8c-17.7 0-32 14.3-32 32s14.3 32 32 32h115.7c17.7 0 32-14.3 32-32s-14.4-32-32.1-32zM797.5 244.3H681.9c-17.7 0-32 14.3-32 32s14.3 32 32 32h115.7c17.7 0 32-14.3 32-32s-14.4-32-32.1-32zM341.1 121.5H225.5c-17.7 0-32 14.3-32 32s14.3 32 32 32h115.7c17.7 0 32-14.3 32-32s-14.4-32-32.1-32zM573.4 121.5H457.8c-17.7 0-32 14.3-32 32s14.3 32 32 32h115.7c17.7 0 32-14.3 32-32s-14.4-32-32.1-32z"  horiz-adv-x="1024" />

    
    <glyph glyph-name="fenban" unicode="&#58930;" d="M960.1 638.4H63.9v65c0 35.2 28.8 64 64 64H896c35.2 0 64-28.8 64-64v-65zM63.9 639.1v-574.6c0-35.2 28.8-64 64-64H896c35.2 0 64 28.8 64 64V639.1H63.9z m583.6-405.4c-0.4-0.4-0.8-0.9-1.2-1.3l-89.6-89.6c-12.4-12.4-32.8-12.4-45.3 0-12.4 12.4-12.4 32.8 0 45.3l35.8 35.8H398.9c-17.6 0-32 14.4-32 32s14.4 32 32 32h225.6c17.6 0 32-14.4 32-32 0-8.6-3.4-16.4-9-22.2z m-23 118.1H398.9c-17.6 0-32 14.4-32 32 0 8.6 3.4 16.4 9 22.2 0.4 0.4 0.8 0.9 1.2 1.3l89.6 89.6c12.4 12.4 32.8 12.4 45.3 0 12.4-12.4 12.4-32.8 0-45.3l-35.8-35.8h148.3c17.6 0 32-14.4 32-32s-14.4-32-32-32z"  horiz-adv-x="1024" />

    
    <glyph glyph-name="chengjiguanli" unicode="&#58931;" d="M487.6 491.1l-83.2 202.8c-2.6 9.1-9.1 16.9-18.4 20.8-0.1 0-0.1 0-0.2 0.1-7.6 3.2-16.5 3.6-24.7 0.2-9.7-4-16.4-12.3-18.8-21.8L258 491.7c-6.8-16.2 0.9-35.1 17.2-41.9 16.2-6.8 35.1 0.9 41.9 17.2l4.9 11.7h101.5l4.9-11.9c6.7-16.3 25.5-24.1 41.8-17.5s24.1 25.5 17.4 41.8z m-138.8 51.6l24.5 58.5 24-58.5h-48.5zM373.3 601.2l-24.5-58.5h48.5zM877.4 594.8L658.9 813.1c-12 12-28.3 18.7-45.2 18.7H194.3c-35.3 0-64-28.7-64-64v-767.3c0-35.3 28.7-64 64-64h637.9c35.3 0 64 28.7 64 64v549c0 17-6.8 33.2-18.8 45.3zM258.1 491.7l84.3 201.5c2.4 9.5 9.1 17.8 18.8 21.8 8.2 3.4 17.1 3 24.7-0.2 0.1 0 0.1 0 0.2-0.1 9.3-3.9 15.8-11.7 18.4-20.8l83.2-202.8c6.7-16.3-1.2-35.1-17.5-41.8s-35.1 1.2-41.8 17.5l-4.9 11.9H322l-4.9-11.7c-6.8-16.2-25.6-24-41.9-17.2-16.2 6.8-23.9 25.7-17.1 41.9z m508.1-332.5c0-17.6-14.4-32-32-32H288.1c-17.6 0-32 14.4-32 32s14.4 32 32 32h446.1c17.6 0 32-14.4 32-32z m0 192.8c0-17.6-14.4-32-32-32H288.1c-17.6 0-32 14.4-32 32s14.4 32 32 32h446.1c17.6 0 32-14.4 32-32z m0 191.9c0-17.6-14.4-32-32-32H608.1c-17.6 0-32 14.4-32 32s14.4 32 32 32h126.1c17.6 0 32-14.4 32-32z"  horiz-adv-x="1024" />

    
    <glyph glyph-name="dianzigongwen" unicode="&#58932;" d="M896.5 0.1h-769c-35.2 0-64 28.8-64 64V223.8c0 35.2 28.8 64 64 64h769c35.2 0 64-28.8 64-64v-159.7c0-35.2-28.8-64-64-64zM701.8 703.9l0.1-0.1V576l-0.1-0.1H322.1l-0.1 0.1V703.8l0.1 0.1h379.7m0.2 64H322c-35.2 0-64-28.8-64-64v-128c0-35.2 28.8-64 64-64h380c35.2 0 64 28.8 64 64v128c0 35.2-28.8 64-64 64zM896.5 640.1h-769c-35.2 0-64-28.8-64-64v-384.4c0-35.2 28.8-64 64-64h769c35.2 0 64 28.8 64 64V576.1c0 35.2-28.8 64-64 64zM640.2 350.9c0-17.6-14.4-32-32-32h-192c-17.6 0-32 14.4-32 32s14.4 32 32 32h192c17.6 0 32-14.4 32-32z"  horiz-adv-x="1024" />

    
    <glyph glyph-name="banjikaohe" unicode="&#58933;" d="M642.8 794.8H588c-17.6 22.7-45.1 37.4-76 37.4s-58.5-14.6-76-37.4h-53.9c-35.2 0-64-28.8-64-64v-43.1c0-10.1 8.3-18.4 18.4-18.4h351.8c10.1 0 18.4 8.3 18.4 18.4v43.1c0.1 35.2-28.7 64-63.9 64zM798.9 733.7h-92.2c0-1 0.1-2 0.1-3v-43.1c0-10.1-8.3-18.4-18.4-18.4H336.5c-10.1 0-18.4 8.3-18.4 18.4v43.1c0 1 0 2 0.1 3H226c-35.9 0-65.3-29.4-65.3-65.3V1c0-35.9 29.4-65.3 65.3-65.3h573c35.9 0 65.3 29.4 65.3 65.3V668.5c-0.1 35.9-29.5 65.2-65.4 65.2zM647.6 393.9L511.7 258c-12.4-12.4-32.8-12.4-45.2 0l-90.1 90c-12.4 12.4-12.4 32.8 0 45.2 12.4 12.4 32.8 12.4 45.2 0l67.5-67.5L602.4 439c12.4 12.4 32.8 12.4 45.2 0 12.4-12.3 12.4-32.7 0-45.1z"  horiz-adv-x="1024" />

    
    <glyph glyph-name="dianzibanpai" unicode="&#58934;" d="M206.4 260.5h611.3c5.5 0 10 4.5 10 10V625.9c0 5.5-4.5 10-10 10H206.4c-5.5 0-10-4.5-10-10v-355.4c0-5.5 4.5-10 10-10zM864.2 64.3H737.1c-17.6 0-32 14.4-32 32s14.4 32 32 32h127.2c17.6 0 32-14.4 32-32-0.1-17.6-14.5-32-32.1-32zM891.4 768H130.2c-36.9 0-66.8-29.9-66.8-66.8v-634c0-36.9 29.9-66.8 66.8-66.8h761.2c36.9 0 66.8 29.9 66.8 66.8v634c0 36.9-29.9 66.8-66.8 66.8zM128 222.3V674.2c0 16.6 13.6 30.2 30.2 30.2H866c16.6 0 30.2-13.6 30.2-30.2v-451.9c0-16.6-13.6-30.2-30.2-30.2H158.2c-16.6 0-30.2 13.6-30.2 30.2z m768.2-126.1c0-17.6-14.4-32-32-32H737.1c-17.6 0-32 14.4-32 32s14.4 32 32 32h127.2c17.5 0 31.9-14.4 31.9-32z"  horiz-adv-x="1024" />

    
    <glyph glyph-name="jilika1" unicode="&#58935;" d="M784.1 609.6l-252.7-80.1c-12.6-4-26.1-4-38.7 0l-252.9 80.1c-26.6 8.4-44.7 33.1-44.7 61v97.5c0 35.3 28.7 64 64 64h505.6c35.3 0 64-28.7 64-64v-97.5c0.1-27.9-18-52.6-44.6-61zM512 705.5c-212.7 0-385.1-172.4-385.1-385.1S299.3-64.7 512-64.7s385.1 172.4 385.1 385.1S724.7 705.5 512 705.5z m123.7-363.4l-42.4-41.4c-4.2-4-6.1-9.9-5.1-15.6l10-58.4c2.5-14.4-12.6-25.4-25.6-18.6l-52.5 27.6c-5.1 2.7-11.3 2.7-16.4 0l-52.5-27.6c-12.9-6.8-28 4.2-25.6 18.6l10 58.4c1 5.7-0.9 11.6-5.1 15.6l-42.4 41.4c-10.5 10.2-4.7 28 9.8 30.1l58.7 8.5c5.7 0.8 10.7 4.4 13.3 9.6l26.2 53.2c6.5 13.1 25.1 13.1 31.6 0l26.2-53.2c2.6-5.2 7.5-8.8 13.3-9.6l58.7-8.5c14.5-2.2 20.3-19.9 9.8-30.1z"  horiz-adv-x="1024" />

    
    <glyph glyph-name="jiaoshichengchang" unicode="&#58936;" d="M831.6 832.1H320.7c-35.2 0-64-28.8-64-64v-0.1h510.4c35.2 0 64-28.8 64-64v-703.5h0.5c35.2 0 64 28.8 64 64V768.1c0 35.2-28.8 64-64 64zM767.1 767.9H256.2c-35.2 0-64-28.8-64-64v-703.6c0-35.2 28.8-64 64-64h510.9c35.2 0 64 28.8 64 64V703.9c0 35.2-28.8 64-64 64z m-148-531.4c0-11.3-9.1-20.4-20.4-20.4H425.3c-11.3 0-20.4 9.1-20.4 20.4v29.3c0 26.2 21.2 47.4 47.4 47.4h37.5s7.4 0.9 0.5 2.7c-37.8 9.7-65.7 43.9-65.7 84.7 0 48.3 39.2 87.4 87.4 87.4 48.3 0 87.4-39.2 87.4-87.4 0-41.1-28.4-75.6-66.6-84.9-6.7-1.6-0.6-2.5-0.6-2.5h39.5c26.2 0 47.4-21.2 47.4-47.4v-29.3z"  horiz-adv-x="1024" />

    
    <glyph glyph-name="jiaoshimanyidu" unicode="&#58937;" d="M417.2 544.1m-288 0a288 288 0 1 1 576 0 288 288 0 1 1-576 0ZM850.1 265.3c-58 0-105.5-44.9-109.7-101.8-4.2 56.9-51.7 101.8-109.7 101.8-60.8 0-109.9-48.7-109.9-109.8C520.8 46 686-64 740.6-64c54.1 0 219.5 109.8 219.5 219.2 0 60.4-49.3 110.1-110 110.1zM520.7 155.6c0 21.1 5.9 40.8 16.1 57.4-24.6-8.9-50.5-15.1-77.3-18.3 0.1-0.9 0.1-1.8 0.1-2.7 0-24.2-19.6-43.9-43.9-43.9s-43.9 19.6-43.9 43.9c0 1 0 2 0.1 3-57.9 7.4-111.4 28.9-156.9 60.9-82.7-3.8-148.7-72.2-148.7-155.9v-96.3c0-37.1 30.1-67.2 67.2-67.2h251.8c-8.3 56.6-13.4 117.6-13.4 130 0 24.2 19.6 43.9 43.9 43.9s43.9-19.6 43.9-43.9c0-12.4-5.1-73.4-13.4-130h258.5c6.2 0 12.2 0.8 17.8 2.4-66.1 17.7-201.9 117.4-201.9 216.7z"  horiz-adv-x="1024" />

    
    <glyph glyph-name="kaoqin" unicode="&#58938;" d="M512 384m-69.5 0a69.5 69.5 0 1 1 139 0 69.5 69.5 0 1 1-139 0ZM512 831C265.1 831 65 630.9 65 384s200.1-447 447-447 447 200.1 447 447S758.9 831 512 831z m259.6-273.2L628.1 414.3c2.5-9.7 3.9-19.8 3.9-30.3 0-66.3-53.7-120-120-120s-120 53.7-120 120c0 10.6 1.4 20.9 4 30.6l-86 86c-19.4 19.4-19.4 51.3 0 70.7 19.4 19.4 51.3 19.4 70.7 0l79.2-79.2c15.8 7.6 33.4 11.9 52.1 11.9 18.8 0 36.6-4.3 52.4-12l136.5 136.5c19.4 19.4 51.3 19.4 70.7 0 19.5-19.4 19.5-51.3 0-70.7z"  horiz-adv-x="1024" />

    
    <glyph glyph-name="hongheibang" unicode="&#58939;" d="M928.4 0.4H96.2c-17.6 0-32 14.4-32 32s14.4 32 32 32h832.2c17.6 0 32-14.4 32-32 0-17.7-14.4-32-32-32zM623 64.3H401V704c0 35.2 28.8 64 64 64h94c35.2 0 64-28.8 64-64v-639.7zM336.2 64.3h-222V512c0 35.2 28.8 64 64 64h94c35.2 0 64-28.8 64-64v-447.7zM910.8 64.3h-222V383.8c0 35.2 28.8 64 64 64h94c35.2 0 64-28.8 64-64v-319.5z"  horiz-adv-x="1024" />

    
    <glyph glyph-name="shuyunyuedu" unicode="&#58940;" d="M895.8 743.1h-288c-35.3 0-64-28.7-64-64V45c0-11 9-20 20-20h332c35.3 0 64 28.7 64 64V679.1c0 35.3-28.7 64-64 64zM321.5 507.7l-35.9 38.7c-6.3 6.8-17.1 6.8-23.5 0l-35.9-38.7c-9.9-10.7-27.7-3.7-27.7 10.9V743.1h150.7v-224.5c0-14.6-17.8-21.6-27.7-10.9zM417.9 743.1h-68.7v-224.5c0-14.5-17.8-21.5-27.7-10.9l-35.9 38.7c-6.3 6.8-17.1 6.8-23.5 0l-35.9-38.7c-9.9-10.7-27.7-3.7-27.7 10.9V743.1h-68.7c-35.3 0-64-28.7-64-64V89c0-35.3 28.7-64 64-64h332c11 0 20 9 20 20V679.1c0.1 35.3-28.6 64-63.9 64z"  horiz-adv-x="1024" />

    
    <glyph glyph-name="fangke" unicode="&#58941;" d="M801.9 270.6c55.1 25.2 93.4 80.8 93.4 145.4 0 88.2-71.5 159.8-159.8 159.8S575.8 504.3 575.8 416c0-64.1 37.7-119.3 92.2-144.8-93-28.2-160.7-114.7-160.7-216.9 0-86.5 101.5-86 226.7-86s226.7-0.6 226.7 86c0 101.6-66.8 187.5-158.8 216.3zM832.3 797.9H161.9c-35.1 0-63.8-28.7-63.8-63.8v-670.4c0-35.1 28.7-63.8 63.8-63.8H530c-14.5 12.5-22.7 30.1-22.7 54.6 0 102 67.7 188.5 160.7 216.7-54.4 25.5-92.2 80.7-92.2 144.8 0 88.2 71.5 159.8 159.8 159.8S895.3 504.3 895.3 416c0-64.6-38.3-120.2-93.4-145.4 36.2-11.3 68.4-31.5 94.3-58V734c0 35.1-28.8 63.9-63.9 63.9zM351 320c0-17.6-14.4-32-32-32h-63c-17.6 0-32 14.4-32 32s14.4 32 32 32h63c17.6 0 32-14.4 32-32z m65.1 159.9c0-17.6-14.4-32-32-32H256c-17.6 0-32 14.4-32 32s14.4 32 32 32h128.1c17.6 0 32-14.4 32-32zM479.5 640c0-17.5-14.3-31.8-31.8-31.8H255.9c-17.5 0-31.8 14.3-31.8 31.8v0.4c0 17.5 14.3 31.8 31.8 31.8h191.8c17.5 0 31.8-14.3 31.8-31.8v-0.4z"  horiz-adv-x="1024" />

    
    <glyph glyph-name="xiaochanyuyue" unicode="&#58942;" d="M736 128H288c-17.6 0-32 14.4-32 32s14.4 32 32 32h448c17.6 0 32-14.4 32-32s-14.4-32-32-32zM926 445V703.8c0 35.2-28.8 64-64 64H162c-35.2 0-64-28.8-64-64v-255.3c54.5-14.7 94.5-64.5 94.5-123.6 0-59.1-40.1-108.9-94.5-123.6v-136.9c0-35.2 28.8-64 64-64h700c35.2 0 64 28.8 64 64V194.9c-57.4 12.7-100.4 63.8-100.4 125.1s43 112.4 100.4 125z m-455.9-29.1V576c0 17.6 14.4 32 32 32s32-14.4 32-32v-128.1h128.1c17.6 0 32-14.4 32-32s-14.4-32-32-32H502.1c-17.6 0-32 14.4-32 32zM768 160c0-17.6-14.4-32-32-32H288c-17.6 0-32 14.4-32 32s14.4 32 32 32h448c17.6 0 32-14.4 32-32z"  horiz-adv-x="1024" />

    
    <glyph glyph-name="paike1" unicode="&#58943;" d="M875.6 512H148.4c-11 0-20-9-20-20v-490.6c0-35.2 28.8-64 64-64h639.3c35.2 0 64 28.8 64 64V492c-0.1 11-9.1 20-20.1 20zM384.1 158.8c0-17.6-14.4-31.9-31.9-31.9h-62c-17.6 0-31.9 14.4-31.9 31.9 0 17.6 14.4 31.9 31.9 31.9h62c17.5 0.1 31.9-14.3 31.9-31.9z m0 127.8c0-17.6-14.4-31.9-31.9-31.9h-62c-17.6 0-31.9 14.4-31.9 31.9 0 17.6 14.4 31.9 31.9 31.9h62c17.5 0.1 31.9-14.3 31.9-31.9z m190.8-127.8c0-17.6-14.4-31.9-31.9-31.9h-62c-17.6 0-31.9 14.4-31.9 31.9 0 17.6 14.4 31.9 31.9 31.9h62c17.6 0.1 31.9-14.3 31.9-31.9z m0 127.8c0-17.6-14.4-31.9-31.9-31.9h-62c-17.6 0-31.9 14.4-31.9 31.9 0 17.6 14.4 31.9 31.9 31.9h62c17.6 0.1 31.9-14.3 31.9-31.9z m192.2-127.8c0-17.6-14.4-31.9-31.9-31.9h-62c-17.6 0-31.9 14.4-31.9 31.9 0 17.6 14.4 31.9 31.9 31.9h62c17.5 0.1 31.9-14.3 31.9-31.9z m0 127.8c0-17.6-14.4-31.9-31.9-31.9h-62c-17.6 0-31.9 14.4-31.9 31.9 0 17.6 14.4 31.9 31.9 31.9h62c17.5 0.1 31.9-14.3 31.9-31.9zM876 575.8H148.7c-11 0-20 9-20 20V704c0 35.2 28.8 64 64 64H832c35.2 0 64-28.8 64-64v-108.2c0-11-9-20-20-20z"  horiz-adv-x="1024" />

    
    <glyph glyph-name="shishengtong" unicode="&#58944;" d="M474.9 416c0-41.6 33.7-75.3 75.3-75.3 41.6 0 75.3 33.7 75.3 75.3 0 41.6-33.7 75.3-75.3 75.3-41.6 0-75.3-33.7-75.3-75.3zM94.1 294.7c80-141.4 221.3-157.7 326.8-125.9 51.3 15.5 103.3 45 145.1 86.3-87-4.8-169 40.2-181.3 145.9-10.1 142.1 125.5 203.7 263.1 235.1 43.2 9.9 61.5 17.6 65.7 21.8 33.3 33.5-122.3 45.8-174.9 16.1-19.8-11.2-26.8 8.8-13.9 19.4 34.8 28.6 141.3 6.3 107.6 80.3-28.3 45.2-96.7 40.8-123.6-8.7-16.3-30-47.8-37.2-60.9-34-20.9 5-17.8 29.5 7.6 48.9C493.5 809 474 814 442.8 814.5c-42.4 0.8-99.9-13.7-145.3-40.1C165.2 697.1 73.7 556.2 73.7 391.8c0-24.3 2.3-51.1 7.3-67.8 4.1-13.8 13.1-29.3 13.1-29.3zM929.8 516.1c-4.5 13.1-36.2 79.3-62.1 65.7-12.7-6.7 6.3-26.9 9.3-40.4 4.9-21.8-5.6-37.6-30.5-38.4-40.6 8.3-10.3 63.4-14.4 99.9-2.6 22.6-21.9 42.9-69.8 29.4-38-21.1-22.2-58.4-7.2-75.5 13.7-16.3 19.2-33.1 6.6-44.4-14-7.3-29.6-2-43.3 7.5-17.5 12.1-34.3 29.4-38.5 50.8-2.5 12.7-2.9 24.2-13.8 24.8-17.7 1-18.1-34.2-8.1-67.2 6.2-20.4 19.3-40.1 26.1-49.7 9.2-12.9 19.4-25.7 29.8-38.8 0.6-20.6-2.8-48-9.4-72.9-0.1-0.3-0.1-0.6-0.2-0.9-0.2-0.6-0.4-1.2-0.6-1.9-1.6-5.7-3.3-11.3-5.3-16.6-12.8-37.1-32.2-72.2-57.9-104.7-50.3-63.3-121.8-111.4-201.3-135.4-37.1-11.2-74.4-16.8-110.9-16.8-37.4 0-74 5.9-108.6 17.7-23.6 8-46 18.7-66.8 32 79.2-113 210.4-186.8 359-186.8 54.7 0 106.9 10 155.2 28.2h-0.1c5.3 2 10.6 4.1 15.8 6.3 1.8 0.7 3.5 1.6 5.3 2.3 3.7 1.6 7.5 3.3 11.1 5 2.1 1 4.1 2 6.2 3 3.3 1.6 6.7 3.3 9.9 5 2.1 1.1 4.1 2.2 6.2 3.3 3.3 1.8 6.5 3.6 9.7 5.5 1.9 1.1 3.9 2.3 5.8 3.4 3.4 2 6.7 4.1 10 6.2 1.7 1.1 3.4 2.1 5.1 3.2 3.8 2.5 7.5 5 11.2 7.6 1.1 0.8 2.3 1.6 3.4 2.4 9.8 7 19.3 14.4 28.5 22.2 0.2 0.1 0.3 0.3 0.5 0.4 94.5 80.3 154.5 200.1 154.5 334.1 0.5 28.2-6.3 83.7-20.4 124.5z"  horiz-adv-x="1024" />

    
    <glyph glyph-name="kewukaoqin" unicode="&#58945;" d="M832.2 832.1H192.7c-35.3 0-64-28.7-64-64v-798.6c0-12.5 15.1-18.7 23.9-9.9l77.8 77.3c15.2 15.1 39.8 15.1 55 0l73.7-73.4c15.4-15.3 40.2-15.1 55.4 0.3l70.8 72.2c15.2 15.5 40.3 15.6 55.6 0.1l71.6-72.4c15.2-15.4 40.1-15.4 55.4-0.1l72.6 72.9c15.2 15.3 40 15.3 55.3 0l76.4-76.7c8.8-8.9 24-2.6 24 9.9V768.1c0 35.4-28.7 64-64 64z m-320.1-640c-141.4 0-256 114.6-256 256s114.6 256 256 256 256-114.6 256-256-114.6-256-256-256zM513.4 415.5h110.1c17.7 0 32.1 14.4 32.1 32.1 0 17.7-14.4 32.1-32.1 32.1h-78v78c0 17.7-14.4 32.1-32.1 32.1-17.7 0-32.1-14.4-32.1-32.1v-110.1c0-17.7 14.4-32.1 32.1-32.1zM647.9 583.9c-36.3 36.3-84.5 56.2-135.8 56.2s-99.5-20-135.8-56.2c-36.3-36.3-56.2-84.5-56.2-135.8s20-99.5 56.2-135.8c36.3-36.3 84.5-56.2 135.8-56.2s99.5 20 135.8 56.2c36.3 36.3 56.2 84.5 56.2 135.8s-19.9 99.5-56.2 135.8z m-24.3-168.4H513.4c-17.7 0-32.1 14.4-32.1 32.1V557.8c0 17.7 14.4 32.1 32.1 32.1 17.7 0 32.1-14.4 32.1-32.1v-78h78c17.7 0 32.1-14.4 32.1-32.1 0.1-17.8-14.3-32.2-32-32.2z"  horiz-adv-x="1024" />

    
    <glyph glyph-name="weimenhu" unicode="&#58946;" d="M417.5 800C223.4 800 66.1 654.5 66.1 475c0-64.2 20.1-124.1 54.9-174.5l17-133.1c1.4-10.9 11.5-18.7 22.4-17.3l140.8 18.1c36.4-11.8 75.5-18.2 116.3-18.2 194.1-0.1 351.5 145.5 351.5 325S611.6 800 417.5 800zM357.2 247.2c0-33.3 6.3-65.3 17.9-95 13.9-1.5 28.1-2.4 42.4-2.4C611.6 149.9 769 295.5 769 475c0 11.1-0.6 22.1-1.8 32.9-33.6 11.9-70.1 18.5-108.2 18.5-166.7 0-301.8-125-301.8-279.2zM833 475.4v-0.4c0-53.1-11.2-104.7-33.4-153.1-21.2-46.4-51.5-88.1-90.1-123.7-38.2-35.3-82.5-63-131.9-82.3-50.8-19.9-104.6-30-160.1-30h-4.9C467.3 14.6 557.2-32 659-32c35 0 68.6 5.5 99.9 15.6l120.9-15.5c9.4-1.2 18 5.5 19.2 14.9l14.6 114.3c29.8 43.3 47.1 94.7 47.1 149.9 0.1 94.3-50.4 177.6-127.7 228.2z"  horiz-adv-x="1024" />

    
    <glyph glyph-name="paikao1" unicode="&#58947;" d="M512 659.5c-17.7 0-32 14.3-32 32v60c0 17.7 14.3 32 32 32s32-14.3 32-32v-60c0-17.7-14.3-32-32-32zM320 188.9v-172.5c0-17.6-14.4-32-32-32s-32 14.4-32 32V188.9c0 17.6 14.4 32 32 32s32-14.4 32-32zM768.1 271.8v-255.3c0-17.6-14.4-32-32-32s-32 14.4-32 32V271.8c0 17.6 14.4 32 32 32 17.6-0.1 32-14.4 32-32zM896 724.8H128c-35.3 0-64-28.7-64-64v-515.7c0-35.3 28.7-64 64-64h768c35.3 0 64 28.7 64 64V660.8c0 35.3-28.7 64-64 64zM192.2 401.9c0 17.6 14.4 32 32 32H352c17.6 0 32-14.4 32-32s-14.4-32-32-32H224.2c-17.6 0.1-32 14.5-32 32z m319.5-128.4c0-17.6-14.4-32-32-32H224.4c-17.6 0-32 14.4-32 32s14.4 32 32 32h255.3c17.6-0.1 32-14.5 32-32z m126.8 255.9c0-17.6-14.4-32-32-32H224.4c-17.6 0-32 14.4-32 32s14.4 32 32 32h382.2c17.5-0.1 31.9-14.4 31.9-32z"  horiz-adv-x="1024" />

    
    <glyph glyph-name="xuanke1" unicode="&#58948;" d="M832.4 286.5v-142.8c0-36.3-19.7-69.8-51.5-87.4L574.2-58.5c-13.3-7.4-29.7 2.2-29.7 17.5V286.5c0 35.3 28.7 64 64 64h160c35.3 0 63.9-28.6 63.9-64zM416 62.6H273.2c-36.3 0-69.8 19.7-87.4 51.5L70.9 320.8c-7.4 13.3 2.2 29.7 17.5 29.7H416c35.3 0 64-28.7 64-64v-160c0-35.3-28.7-63.9-64-63.9zM608.4 704h142.8c36.3 0 69.8-19.7 87.4-51.5l114.8-206.8c7.4-13.3-2.2-29.7-17.5-29.7H608.4c-35.3 0-64 28.7-64 64V640c0 35.3 28.7 64 64 64zM192 480V622.8c0 36.3 19.7 69.8 51.5 87.4L450.3 825.1c13.3 7.4 29.7-2.2 29.7-17.5V480c0-35.3-28.7-64-64-64H256c-35.3 0-64 28.7-64 64z"  horiz-adv-x="1024" />

    
    <glyph glyph-name="xueshengbaoming" unicode="&#58949;" d="M768.2 127.8m-192.2 0a192.2 192.2 0 1 1 384.4 0 192.2 192.2 0 1 1-384.4 0ZM414.2 544m-288 0a288 288 0 1 1 576 0 288 288 0 1 1-576 0ZM858.7 188.4c-12.5 12.5-32.7 12.5-45.2 0L760.1 135l-24.4 24.4c-12.5 12.5-32.7 12.5-45.2 0s-12.5-32.7 0-45.2l47-47c12.5-12.5 32.7-12.5 45.2 0l76 76c12.5 12.5 12.5 32.7 0 45.2zM576 127.8c0 49.1 18.4 93.8 48.7 127.8-2.8 0.2-5.5 0.3-8.3 0.4-57.2-40.2-127-63.9-202.2-63.9-75.2 0-144.9 23.6-202 63.7-82.9-3.8-148.9-72.1-148.9-155.9v-96.3c0-37.1 30.1-67.2 67.2-67.2h571.3c8.1 0 15.9 1.4 23.2 4.1-85.4 19.7-149 96.1-149 187.3z"  horiz-adv-x="1024" />

    
    <glyph glyph-name="wupin" unicode="&#58950;" d="M112.5 538l156.4 218.8c12 16.8 31.4 26.8 52.1 26.8h382.2c20.7 0 40.1-10 52.1-26.9l156.1-219.2-798.9 0.5zM321 719.6h382.2l84-118 42.8-63.9 81.4-0.1-156.1 219.2c-12 16.9-31.4 26.9-52.1 26.9H321c-20.7 0-40.1-10-52.1-26.8L112.5 538h77.4L321 719.6zM858.8 561.6H165.6c-37.4 0-67.6-30.3-67.6-67.6v-442c0-37.4 30.3-67.6 67.6-67.6h693.2c37.4 0 67.6 30.3 67.6 67.6V494c0.1 37.3-30.2 67.6-67.6 67.6zM640 273.9c0-17.6-14.4-32-32-32H416c-17.6 0-32 14.4-32 32s14.4 32 32 32h192c17.6 0 32-14.4 32-32z"  horiz-adv-x="1024" />

    
    <glyph glyph-name="xinxifabu" unicode="&#58951;" d="M437.4 415.6c0.2 0.4 0.3 0.7 0.5 1.1-0.1-0.3-0.3-0.7-0.5-1.1zM450.1 436.2c0.3 0.4 0.6 0.7 0.9 1.1-0.3-0.4-0.6-0.7-0.9-1.1zM452.8 439.2c0.3 0.3 0.6 0.6 0.9 1-0.3-0.3-0.6-0.6-0.9-1zM447.6 433.1c0.3 0.4 0.6 0.8 0.9 1.1-0.3-0.4-0.6-0.8-0.9-1.1zM441 422.9c0.2 0.4 0.5 0.9 0.7 1.3-0.2-0.4-0.5-0.8-0.7-1.3zM443 426.4c0.3 0.4 0.5 0.8 0.8 1.3-0.3-0.4-0.5-0.9-0.8-1.3zM445.2 429.8l0.9 1.2-0.9-1.2zM456.5 443l-0.9-0.9 0.9 0.9zM468.5 452.3c0.2 0.1 0.4 0.3 0.7 0.4-0.2-0.1-0.5-0.2-0.7-0.4zM472.1 454.5c0.2 0.1 0.4 0.2 0.5 0.3-0.1-0.1-0.3-0.2-0.5-0.3zM458.6 444.9c0.3 0.3 0.6 0.5 0.9 0.8-0.3-0.3-0.6-0.5-0.9-0.8zM475.9 456.5c0.1 0.1 0.2 0.1 0.3 0.2-0.1-0.1-0.2-0.1-0.3-0.2zM465.1 450c0.3 0.2 0.5 0.4 0.8 0.5-0.3-0.1-0.6-0.3-0.8-0.5zM461.8 447.5c0.3 0.2 0.6 0.4 0.8 0.7-0.3-0.2-0.6-0.5-0.8-0.7zM439.1 419.3c0.2 0.4 0.4 0.9 0.7 1.3-0.3-0.4-0.5-0.8-0.7-1.3zM576.3 433.2c-0.2 0.2-0.4 0.5-0.6 0.7 0.3-0.2 0.5-0.5 0.6-0.7zM578.7 429.9c-0.2 0.2-0.3 0.5-0.5 0.7 0.2-0.2 0.4-0.5 0.5-0.7zM573.8 436.3c-0.2 0.2-0.4 0.5-0.6 0.7 0.2-0.2 0.4-0.4 0.6-0.7zM571.1 439.4c-0.2 0.2-0.4 0.4-0.6 0.7 0.2-0.3 0.4-0.5 0.6-0.7zM583 423c-0.1 0.2-0.2 0.3-0.3 0.5 0.1-0.2 0.2-0.3 0.3-0.5zM580.9 426.5c-0.1 0.2-0.3 0.4-0.4 0.7 0.2-0.2 0.3-0.5 0.4-0.7zM561.5 448.1c0.2-0.2 0.4-0.3 0.6-0.5-0.2 0.2-0.4 0.4-0.6 0.5zM584.9 419.4c-0.1 0.1-0.1 0.1 0 0-0.1 0.1-0.1 0.1 0 0zM551.4 454.8c0.1 0 0.2-0.1 0.2-0.1s-0.1 0-0.2 0.1zM568.2 442.3l-0.6 0.6 0.6-0.6zM564.6 445.6c0.2-0.2 0.4-0.4 0.6-0.5-0.2 0.1-0.4 0.3-0.6 0.5zM554.9 452.7c0.1-0.1 0.3-0.2 0.4-0.3-0.2 0.1-0.3 0.2-0.4 0.3zM558.2 450.5c0.2-0.1 0.3-0.2 0.5-0.4-0.1 0.1-0.3 0.3-0.5 0.4zM943.2 398.1L741.1 600.3c-12.7 12.7-34.4 3.5-34.1-14.5l1.6-106.3H578c-22 0-40-18-40-40v-111.1c0-22 18-40 40-40h133.5l1.6-100.7c0.3-17.7 21.6-26.3 34.1-13.8l196 196c7.8 7.8 7.8 20.4 0 28.2zM747.2 173.9c-12.5-12.5-33.9-3.8-34.1 13.8l-1.6 100.7H578c-22 0-40 18-40 40V439.6c0 22 18 40 40 40h130.6L707 585.9c-0.3 18 21.4 27.2 34.1 14.5l89.9-89.9V732.8c0 35.7-29.2 64.9-64.9 64.9H196c-35.7 0-64.9-29.2-64.9-64.9v-700.2c0-35.7 29.2-64.9 64.9-64.9h570c35.7 0 64.9 29.2 64.9 64.9v225l-83.7-83.7z m-299.1-13.7c0-17.7-14.3-32-32-32h-128c-17.7 0-32 14.3-32 32s14.3 32 32 32h128c17.6 0 32-14.4 32-32z m0 223.8c0-17.7-14.3-32-32-32h-128c-17.7 0-32 14.3-32 32s14.3 32 32 32h128c17.6 0 32-14.3 32-32z m0 224c0-17.7-14.3-32-32-32h-128c-17.7 0-32 14.3-32 32s14.3 32 32 32h128c17.6 0 32-14.3 32-32z"  horiz-adv-x="1024" />

    
    <glyph glyph-name="xuefen1" unicode="&#58952;" d="M890.6 320c-17.7 0-32 14.3-32 32V567.9c0 17.7 14.3 32 32 32s32-14.3 32-32V352c0-17.7-14.3-32-32-32zM950.2 564.5L538.9 368.7c-17.4-8.3-37.7-8.3-55.1 0l-410 195.9c-12.2 5.8-12.1 23.1 0 28.9L484 787.7c17.3 8.2 37.4 8.2 54.7 0l411.4-194.3c12.3-5.7 12.3-23.1 0.1-28.9zM538.9 306.1c-17.4-8.3-37.7-8.3-55.1 0l-200 95.5c-11.6 5.5-25.2-1.1-28.1-13.6l-56.9-247.5c-4.3-18.7 5.3-37.9 23-45.6l264-115.5c16.4-7.2 34.9-7.2 51.3 0l264 115.5c17.6 7.7 27.3 26.9 23 45.6l-56.8 247.3c-2.9 12.5-16.5 19.1-28.1 13.6l-200.3-95.3z"  horiz-adv-x="1024" />

    
    <glyph glyph-name="zhihuiguanli" unicode="&#58954;" d="M706.2 166l-50-74.9H367.9l-50 74.9H127.8l47.5-182c7.4-28.2 32.8-47.8 61.9-47.8h557.4c30.1 0 56.1 21 62.5 50.4l39 179.5H706.2zM387 376.1c0 17.7 14.3 32 32 32h185.8c17.7 0 32-14.3 32-32s-14.3-32-32-32H419c-17.7 0-32 14.4-32 32zM894.2 178.1L795 778.3c-5.1 30.9-31.8 53.6-63.1 53.6H292.1c-31.3 0-58-22.7-63.1-53.6l-99-598.8c-0.7-4.4-1-8.9-0.8-13.4h62.9L292 767.8l0.1-0.1v0.1h439.8L820.8 230l11.4-64h62.9c0.1 4.1-0.2 8.1-0.9 12.1zM544.1 511.7h-64c-17.7 0-32 14.3-32 32s14.3 32 32 32h64c17.7 0 32-14.3 32-32s-14.3-32-32-32zM677.5 703.8H346.2L268 230h84.1l19-28.5 31-46.5H622l31 46.5 19 28.5h83.7l-78.2 473.8zM448.1 543.7c0 17.7 14.3 32 32 32h64c17.7 0 32-14.3 32-32s-14.3-32-32-32h-64c-17.7 0-32 14.3-32 32z m188.7-167.6c0-17.7-14.3-32-32-32H419c-17.7 0-32 14.3-32 32s14.3 32 32 32h185.8c17.7 0 32-14.3 32-32z"  horiz-adv-x="1024" />

    
    <glyph glyph-name="shouye1" unicode="&#58955;" d="M931.7 455.9H92.3c-29.6 0-42.1 37.7-18.5 55.4L476 812.8c21.3 16 50.7 16 72 0l402.2-301.5c23.7-17.8 11.1-55.4-18.5-55.4zM127.9 487.3L182-3.4c3.4-30.4 29-53.4 59.6-53.4h540.7c30.6 0 56.3 23 59.6 53.4L896 487.3H127.9z m545.6-374.4c0-22.1-17.9-40-40-40H392.3c-22.1 0-40 17.9-40 40V233.5c0 88.7 71.9 160.6 160.6 160.6 88.7 0 160.6-71.9 160.6-160.6v-120.6zM511.9 327.4c-53.3 0-96.4-43.2-96.4-96.4v-76.4c0-11 9-20 20-20h152.8c11 0 20 9 20 20V231c0 53.2-43.1 96.4-96.4 96.4z"  horiz-adv-x="1024" />

    
    <glyph glyph-name="zonghesuzhi" unicode="&#58953;" d="M523 546.8L366.4 433l63.5-195.6h193.7l-15.8 165zM920.2 542.6L568.4 798.2c-33.8 24.5-79.1 24.5-112.9 0L103.8 542.6C70.1 518.1 56 475 68.9 435.3l134.4-413.5c12.9-39.7 49.6-66.3 91.3-66.3h434.8c41.7 0 78.4 26.7 91.3 66.3l134.4 413.5c12.9 39.7-1.2 82.8-34.9 107.3zM682.5 183.9a32.05 32.05 0 0 0-23.7-10.5H406.7c-13.9 0-26.1 8.9-30.4 22.1l-77.9 239.8c-4.3 13.2 0.4 27.6 11.6 35.8l204 148.2c7.3 5.3 16.5 7.3 25.3 5.4 8.8-1.8 16.5-7.3 21.1-15.1l106.2-181c2.4-4 3.8-8.5 4.3-13.1l19.8-207.1c0.9-8.9-2.1-17.8-8.2-24.5z"  horiz-adv-x="1024" />

    


  </font>
</defs>
</svg>
